<svg xmlns="http://www.w3.org/2000/svg" viewBox="0 0 64 64" width="64" height="64">
  <defs>
    <linearGradient id="bg" x1="0" y1="0" x2="1" y2="1">
      <stop offset="0%" stop-color="#1a4a2e"/>
      <stop offset="100%" stop-color="#0d2818"/>
    </linearGradient>
    <linearGradient id="card" x1="0.2" y1="0" x2="0.8" y2="1">
      <stop offset="0%" stop-color="#5a1a1a"/>
      <stop offset="40%" stop-color="#6b1a1a"/>
      <stop offset="70%" stop-color="#4a1215"/>
      <stop offset="100%" stop-color="#3a0e10"/>
    </linearGradient>
    <linearGradient id="cardShine" x1="0" y1="0" x2="1" y2="1">
      <stop offset="0%" stop-color="#fff" stop-opacity="0.08"/>
      <stop offset="40%" stop-color="#fff" stop-opacity="0.03"/>
      <stop offset="100%" stop-color="#000" stop-opacity="0.1"/>
    </linearGradient>
    <linearGradient id="fold" x1="0" y1="0" x2="1" y2="1">
      <stop offset="0%" stop-color="#e8e0d8"/>
      <stop offset="100%" stop-color="#c8c0b8"/>
    </linearGradient>
    <pattern id="diamond" x="0" y="0" width="8" height="8" patternUnits="userSpaceOnUse" patternTransform="rotate(45)">
      <rect width="8" height="8" fill="none"/>
      <line x1="0" y1="0" x2="0" y2="8" stroke="#fff" stroke-opacity="0.06" stroke-width="0.6"/>
      <line x1="0" y1="0" x2="8" y2="0" stroke="#fff" stroke-opacity="0.06" stroke-width="0.6"/>
    </pattern>
    <clipPath id="cardClip">
      <path d="M14 8 L50 8 L50 44 Q50 48 46 52 L42 56 L14 56 Z"/>
    </clipPath>
  </defs>

  <rect width="64" height="64" fill="url(#bg)"/>

  <g clip-path="url(#cardClip)">
    <rect x="14" y="8" width="36" height="48" rx="2" fill="url(#card)"/>
    <rect x="14" y="8" width="36" height="48" rx="2" fill="url(#diamond)"/>
    <rect x="14" y="8" width="36" height="48" rx="2" fill="url(#cardShine)"/>
  </g>

  <path d="M14 8 L50 8 L50 44 Q50 48 46 52 L42 56 L14 56 Z" fill="none" stroke="#2a0a0c" stroke-width="2.2" stroke-linejoin="round"/>
  <rect x="17" y="11" width="30" height="42" rx="1" fill="none" stroke="#5a2020" stroke-width="0.8" stroke-opacity="0.5" clip-path="url(#cardClip)"/>

  <path d="M42 56 L42 50 Q42 46 46 46 L50 44 Q50 48 46 52 Z" fill="url(#fold)"/>
  <path d="M42 56 L42 50 Q42 46 46 46 L50 44" fill="none" stroke="#2a0a0c" stroke-width="1.2" stroke-linejoin="round"/>
  <path d="M43 54 L43 50.5 Q43 47 46.5 47 L49 45.5" fill="none" stroke="#000" stroke-opacity="0.15" stroke-width="2"/>
</svg>
